<?xml version="1.0" standalone="no"?>
<!DOCTYPE svg PUBLIC "-//W3C//DTD SVG 20010904//EN"
 "http://www.w3.org/TR/2001/REC-SVG-20010904/DTD/svg10.dtd">
<svg version="1.0" xmlns="http://www.w3.org/2000/svg"
 width="1080.000000pt" height="1080.000000pt" viewBox="0 0 1080.000000 1080.000000"
 preserveAspectRatio="xMidYMid meet">

<g transform="translate(0.000000,1080.000000) scale(0.100000,-0.100000)"
fill="#000000" stroke="none">
<path d="M5425 6950 c-58 -15 -86 -30 -133 -74 -26 -25 -67 -51 -90 -59 -93
-32 -165 -109 -207 -219 -17 -46 -19 -48 -56 -48 -26 0 -56 -11 -91 -32 -29
-18 -95 -51 -148 -74 -94 -41 -95 -42 -94 -75 7 -170 66 -1299 70 -1316 l4
-23 619 0 619 0 111 129 111 129 25 578 c14 318 25 602 25 631 l0 53 -203 0
-202 0 -12 74 c-36 222 -190 367 -348 326z m130 -59 c94 -43 174 -185 175
-308 l0 -33 -77 0 -78 0 -32 68 c-37 79 -113 160 -174 187 -24 10 -46 20 -48
22 -10 7 37 47 74 64 51 24 109 24 160 0z m-210 -127 c50 -20 126 -98 153
-156 12 -26 22 -50 22 -53 0 -3 -72 -5 -160 -5 l-160 0 0 30 c0 36 34 142 57
176 18 28 37 30 88 8z m-145 -7 c0 -1 -9 -29 -20 -60 -11 -32 -23 -78 -27
-102 l-6 -45 -58 0 c-33 0 -59 3 -59 6 0 3 12 30 26 61 30 62 102 143 127 143
9 0 17 -1 17 -3z m-230 -292 c0 -29 -5 -48 -13 -51 -7 -2 -60 -3 -118 -2
l-104 3 35 16 c19 9 58 30 85 47 29 18 64 32 83 32 31 0 32 -1 32 -45z m564
37 c3 -5 8 -28 12 -50 l7 -42 -273 0 -272 0 6 23 c3 12 6 34 6 50 l0 27 254 0
c140 0 257 -4 260 -8z m521 -4 c-11 -6 -41 -28 -66 -50 l-47 -38 -170 0 c-168
0 -170 0 -176 23 -3 12 -6 34 -6 50 l0 27 243 0 c185 -1 237 -3 222 -12z m95
-50 c1 -125 -44 -1144 -50 -1151 -4 -5 -27 4 -50 19 l-42 28 6 146 c3 80 11
291 16 470 6 179 13 363 16 408 l6 84 41 19 c23 10 45 19 50 19 4 0 7 -19 7
-42z m-120 -55 c0 -16 -7 -255 -16 -533 l-16 -505 -30 -93 c-17 -51 -31 -92
-33 -90 -1 2 6 273 17 603 20 577 21 601 41 623 27 29 37 28 37 -5z m-100 -90
c0 -38 -9 -329 -20 -648 -11 -319 -20 -583 -20 -587 0 -5 -265 -8 -589 -8
l-589 0 -6 73 c-3 39 -17 308 -31 597 -14 289 -27 551 -30 583 l-5 57 645 0
645 0 0 -67z m123 -1006 l28 -22 -63 -74 c-34 -40 -64 -69 -66 -63 -6 18 49
182 61 182 7 0 25 -10 40 -23z"/>
<path d="M4958 6269 c-21 -12 -24 -59 -6 -77 14 -14 47 -15 67 -3 8 5 14 24
14 41 0 45 -35 63 -75 39z"/>
<path d="M5538 6269 c-25 -14 -24 -65 1 -79 27 -14 47 -13 65 6 44 44 -12 105
-66 73z"/>
<path d="M6660 5130 l0 -80 1280 0 1280 0 0 80 0 80 -1280 0 -1280 0 0 -80z"/>
<path d="M1570 5110 l0 -80 1285 0 1285 0 0 80 0 80 -1285 0 -1285 0 0 -80z"/>
<path d="M3761 4586 c-8 -9 -11 -114 -9 -367 l3 -354 27 -13 c29 -13 63 -4 80
22 4 6 8 80 8 164 0 109 4 162 14 187 27 64 120 86 173 41 l28 -24 5 -182 c5
-176 6 -182 29 -201 29 -24 43 -24 72 0 23 18 24 27 27 145 7 239 -21 352 -94
382 -70 29 -176 12 -218 -35 -11 -11 -23 -21 -28 -21 -4 0 -8 53 -8 118 0 103
-3 121 -18 135 -22 20 -75 22 -91 3z"/>
<path d="M3261 4557 c-48 -18 -111 -74 -127 -113 -19 -45 -18 -128 2 -170 32
-67 89 -98 237 -129 94 -20 137 -51 137 -99 0 -41 -30 -70 -89 -86 -61 -16
-118 -5 -186 35 -65 40 -85 43 -108 17 -57 -63 31 -149 178 -172 114 -18 211
9 277 78 45 47 62 98 53 162 -14 101 -70 146 -225 181 -52 12 -107 28 -122 35
-80 41 -54 135 43 152 53 10 134 -7 184 -38 40 -25 67 -25 88 -2 39 43 14 88
-73 133 -36 18 -64 23 -140 26 -60 2 -108 -2 -129 -10z"/>
<path d="M4492 4385 c-175 -76 -228 -315 -102 -458 59 -66 117 -92 210 -91 64
0 84 5 129 29 57 31 109 88 132 145 22 54 18 176 -7 231 -27 57 -84 115 -138
140 -51 23 -175 25 -224 4z m183 -120 c138 -80 83 -315 -74 -315 -90 0 -154
69 -154 165 0 69 28 123 79 152 51 29 97 29 149 -2z"/>
<path d="M5191 4390 c-13 -6 -36 -20 -53 -31 -16 -12 -30 -20 -31 -18 -22 41
-26 44 -63 44 -63 0 -64 -6 -64 -370 0 -354 2 -368 56 -373 54 -5 64 15 64
133 0 59 4 107 10 110 6 3 23 -3 39 -14 37 -27 112 -43 162 -35 23 4 62 21 87
38 159 107 160 375 2 488 -39 29 -54 33 -115 35 -38 2 -81 -2 -94 -7z m129
-119 c75 -39 103 -156 60 -242 -53 -104 -195 -106 -256 -4 -27 44 -26 154 2
192 52 70 126 91 194 54z"/>
<path d="M5831 4389 c-13 -5 -36 -19 -53 -30 -16 -12 -31 -20 -32 -18 -2 2 -9
14 -15 27 -10 19 -19 23 -49 20 -60 -5 -62 -13 -62 -373 0 -354 2 -368 56
-373 55 -5 64 15 64 139 0 60 2 109 4 109 2 0 27 -12 56 -27 112 -58 235 -26
305 80 125 192 13 459 -192 456 -32 0 -69 -5 -82 -10z m125 -115 c49 -23 84
-87 84 -153 0 -101 -61 -171 -149 -171 -59 0 -104 30 -131 86 -71 145 60 303
196 238z"/>
<path d="M6395 4381 c-97 -44 -156 -144 -157 -265 0 -170 105 -279 272 -279
124 -1 222 55 206 119 -9 35 -49 41 -103 15 -88 -42 -182 -22 -236 51 -40 53
-26 58 171 58 125 0 182 4 190 12 19 19 14 107 -8 154 -26 53 -80 108 -130
134 -51 26 -149 27 -205 1z m162 -108 c31 -14 73 -64 73 -85 0 -5 -61 -8 -135
-8 -91 0 -135 4 -135 11 0 23 34 67 64 82 41 21 90 21 133 0z"/>
<path d="M7043 4374 c-24 -14 -43 -29 -43 -35 0 -5 -4 -9 -10 -9 -5 0 -10 6
-10 14 0 45 -77 62 -104 24 -13 -19 -16 -60 -16 -251 l0 -228 25 -25 c19 -18
31 -23 48 -19 43 13 47 31 47 187 0 220 26 267 140 255 69 -8 93 6 93 51 0 47
-18 62 -77 62 -37 0 -63 -7 -93 -26z"/>
<path d="M7382 4379 c-51 -26 -79 -63 -88 -117 -14 -91 34 -148 158 -187 40
-12 85 -28 101 -35 35 -17 45 -54 22 -80 -38 -42 -119 -34 -193 20 -48 35 -87
39 -102 11 -18 -35 -11 -59 32 -95 49 -43 100 -59 183 -59 138 0 225 91 195
205 -17 61 -58 94 -158 124 -94 29 -134 59 -125 93 3 12 15 27 26 32 33 18
112 5 151 -24 53 -41 96 -32 96 21 0 39 -19 63 -73 88 -69 32 -164 33 -225 3z"/>
</g>
</svg>
